<svg xmlns="http://www.w3.org/2000/svg" width="99.482" height="99.482" viewBox="0 0 99.482 99.482">
  <g id="Grupo_228" data-name="Grupo 228" transform="translate(-953.391 -1413.352)">
    <g id="crypto" transform="translate(952.391 1412.352)">
      <path id="Caminho_80" data-name="Caminho 80" d="M20.023,51.882h3.209V48.445a6.367,6.367,0,0,0,2.6-11,6.367,6.367,0,0,0-2.6-11V23H20.023v3.209h-1.6V23H15.209v3.209H12v3.209h1.6V45.464H12v3.209h3.209v3.209h3.209V48.673h1.6Zm1.6-22.464a3.209,3.209,0,0,1,0,6.418H16.814V29.418Zm-4.814,9.627h4.814a3.209,3.209,0,1,1,0,6.418H16.814Z" transform="translate(6.65 13.3)" fill="#212e78"/>
      <path id="Caminho_81" data-name="Caminho 81" d="M17,48.045v3.209A19.276,19.276,0,0,0,36.255,32H33.045A16.064,16.064,0,0,1,17,48.045Z" transform="translate(9.673 18.741)" fill="#212e78"/>
      <path id="Caminho_82" data-name="Caminho 82" d="M24.255,20A19.276,19.276,0,0,0,5,39.255H8.209A16.064,16.064,0,0,1,24.255,23.209Z" transform="translate(2.418 11.486)" fill="#212e78"/>
      <path id="Caminho_83" data-name="Caminho 83" d="M74.809,16A25.692,25.692,0,0,0,50.741,32.824a25.673,25.673,0,1,0,0,17.7A25.66,25.66,0,1,0,74.809,16Zm0,48.136c-2.638,0-5.481-4.465-6.972-11.631a60.987,60.987,0,0,0,6.972.4,60.987,60.987,0,0,0,6.972-.4C80.29,59.671,77.447,64.136,74.809,64.136Zm0-14.441a56.905,56.905,0,0,1-7.53-.493,57.79,57.79,0,0,1,0-15.059,57.616,57.616,0,0,1,15.06,0,57.79,57.79,0,0,1,0,15.059A56.905,56.905,0,0,1,74.809,49.7ZM63.977,48.645c-7.166-1.491-11.631-4.334-11.631-6.972s4.465-5.481,11.631-6.972a61.028,61.028,0,0,0,0,13.944ZM74.809,19.209c2.638,0,5.481,4.465,6.973,11.63a61.3,61.3,0,0,0-13.947,0c1.492-7.164,4.335-11.63,6.973-11.63ZM85.642,34.7c7.166,1.491,11.631,4.334,11.631,6.972s-4.465,5.481-11.631,6.972a61.028,61.028,0,0,0,0-13.944Zm10.726.714a30.04,30.04,0,0,0-11.214-4.088,29.974,29.974,0,0,0-4.088-11.214A22.533,22.533,0,0,1,96.368,35.415Zm-27.815-15.3a30.012,30.012,0,0,0-4.088,11.214,29.974,29.974,0,0,0-11.214,4.088A22.527,22.527,0,0,1,68.553,20.114ZM26.673,64.136A22.464,22.464,0,1,1,49.136,41.673,22.488,22.488,0,0,1,26.673,64.136ZM53.251,47.929a30.012,30.012,0,0,0,11.214,4.088,29.974,29.974,0,0,0,4.088,11.214A22.527,22.527,0,0,1,53.251,47.929Zm27.815,15.3a29.985,29.985,0,0,0,4.088-11.214,29.974,29.974,0,0,0,11.214-4.088A22.527,22.527,0,0,1,81.065,63.232Z" transform="translate(0 9.068)" fill="#212e78"/>
      <path id="Caminho_84" data-name="Caminho 84" d="M39.859,4.209a17.678,17.678,0,0,1,17.267,14l-5.032-4.026-2.006,2.506,8.023,6.418a1.606,1.606,0,0,0,2.256-.25l6.418-8.023-2.506-2-3.965,4.956A20.857,20.857,0,0,0,19,21.859h3.209A17.671,17.671,0,0,1,39.859,4.209Z" transform="translate(10.882 0)" fill="#212e78"/>
      <path id="Caminho_85" data-name="Caminho 85" d="M42.145,68.254A17.677,17.677,0,0,1,24.878,54.248l5.032,4.027,2.006-2.506-8.023-6.418a1.609,1.609,0,0,0-2.256.25l-6.418,8.023,2.506,2.006,3.965-4.956A20.857,20.857,0,0,0,63,50.6H59.795A17.671,17.671,0,0,1,42.145,68.254Z" transform="translate(8.596 29.019)" fill="#212e78"/>
    </g>
  </g>
</svg>
