<svg xmlns="http://www.w3.org/2000/svg" width="99.018" height="94.272" viewBox="0 0 99.018 94.272">
  <g id="Grupo_233" data-name="Grupo 233" transform="translate(-644.571 -1668.843)">
    <g id="bill" transform="translate(644.571 1668.453)">
      <path id="Caminho_96" data-name="Caminho 96" d="M352.389,45.714c.043,0,.086.006.13.006a1.606,1.606,0,0,0,.222-.016,3.585,3.585,0,0,1,3.512,3.58,1.6,1.6,0,0,0,3.208,0,6.8,6.8,0,0,0-5.338-6.634V41.108a1.6,1.6,0,1,0-3.208,0v1.614a6.792,6.792,0,0,0,1.755,13.353,3.584,3.584,0,1,1-3.584,3.584,1.6,1.6,0,1,0-3.208,0,6.8,6.8,0,0,0,5.038,6.561v1.758a1.6,1.6,0,1,0,3.208,0V66.3a6.792,6.792,0,0,0-1.454-13.426,3.582,3.582,0,0,1-.28-7.154Zm0,0" transform="translate(-276.519 -31.27)" fill="#212e78"/>
      <g id="Grupo_232" data-name="Grupo 232">
        <path id="Caminho_97" data-name="Caminho 97" d="M76.243.39A23.017,23.017,0,0,0,54.8,15.453H14.979a1.678,1.678,0,0,0-1.6,1.676L13,73.406H1.646A1.578,1.578,0,0,0,0,74.935v7.142a12.6,12.6,0,0,0,12.032,12.55v.035H61.562v-.047c.4.015.566.047.82.047h.034A12.6,12.6,0,0,0,75,82.062V45.954c.4.022.826.034,1.241.034a22.8,22.8,0,0,0,0-45.6Zm-63.6,91.063h-.01A9.436,9.436,0,0,1,3.208,82.06V76.614H49.731v5.423a12.585,12.585,0,0,0,3.714,8.917c.168.168.378.3.554.5ZM71.789,82.06a9.392,9.392,0,0,1-9.374,9.394h-.031a9.462,9.462,0,0,1-9.445-9.415v-7.1a1.481,1.481,0,0,0-1.531-1.529H16.2l.368-54.745H53.905a24.1,24.1,0,0,0-.439,4.456A22.622,22.622,0,0,0,55.4,32.3H40.25a1.6,1.6,0,0,0,0,3.208H57.143A22.639,22.639,0,0,0,71.789,45.553Zm4.453-39.28A19.568,19.568,0,1,1,95.811,23.212,19.567,19.567,0,0,1,76.243,42.78Zm0,0" fill="#212e78"/>
      </g>
      <path id="Caminho_98" data-name="Caminho 98" d="M128.9,212.746a4.974,4.974,0,1,0,5.135,4.972A5.06,5.06,0,0,0,128.9,212.746Zm0,6.735a1.77,1.77,0,1,1,1.927-1.763A1.852,1.852,0,0,1,128.9,219.481Zm0,0" transform="translate(-98.944 -169.772)" fill="#212e78"/>
      <path id="Caminho_99" data-name="Caminho 99" d="M192.719,231.108a1.6,1.6,0,0,0,1.6,1.6h21.388a1.6,1.6,0,1,0,0-3.208H194.323A1.6,1.6,0,0,0,192.719,231.108Zm0,0" transform="translate(-154.073 -183.17)" fill="#212e78"/>
      <path id="Caminho_100" data-name="Caminho 100" d="M128.9,143.2a4.975,4.975,0,1,0,5.135,4.973A5.061,5.061,0,0,0,128.9,143.2Zm0,6.736a1.771,1.771,0,1,1,1.927-1.763,1.852,1.852,0,0,1-1.927,1.763Zm0,0" transform="translate(-98.944 -114.174)" fill="#212e78"/>
      <path id="Caminho_101" data-name="Caminho 101" d="M128.9,282.281a4.974,4.974,0,1,0,5.135,4.972A5.061,5.061,0,0,0,128.9,282.281Zm0,6.735a1.77,1.77,0,1,1,1.927-1.763A1.851,1.851,0,0,1,128.9,289.016Zm0,0" transform="translate(-98.944 -225.363)" fill="#212e78"/>
      <path id="Caminho_102" data-name="Caminho 102" d="M215.711,299.5H194.323a1.6,1.6,0,1,0,0,3.208h21.388a1.6,1.6,0,1,0,0-3.208Zm0,0" transform="translate(-154.073 -239.132)" fill="#212e78"/>
    </g>
  </g>
</svg>
