<svg xmlns="http://www.w3.org/2000/svg" width="90.72" height="89.239" viewBox="0 0 90.72 89.239">
  <g id="Grupo_234" data-name="Grupo 234" transform="translate(-953.391 -1675.43)">
    <path id="bag" d="M13.131,89.66H81.7a5.813,5.813,0,0,0,5.806-5.8V64.326h1.671a1.493,1.493,0,0,0,1.543-1.458V54.736a5.77,5.77,0,0,0-5.835-5.725H80.71a7.1,7.1,0,0,0,.936-3.432v-.01A6.412,6.412,0,0,0,75.275,39.2a9.29,9.29,0,0,0-6.6,2.829L66.863,26.3a1.478,1.478,0,0,0-1.5-1.3H55.555V18.187c0-9.8-8.417-17.765-18.717-17.765S18.12,8.391,18.12,18.187V25H7.281a1.479,1.479,0,0,0-1.5,1.3l-5.7,49.5a11.982,11.982,0,0,0,3.043,9.453,13.382,13.382,0,0,0,10.007,4.4Zm36.385-3.025a2.843,2.843,0,0,1-2.848-2.78V64.326h12.1v22.31Zm12.277,0V64.326h7.752v22.31Zm22.688-2.78a2.785,2.785,0,0,1-2.781,2.78h-9.13V64.326H84.482ZM87.7,54.737V61.3H43.455V54.736a2.75,2.75,0,0,1,2.82-2.7H84.886a2.743,2.743,0,0,1,2.81,2.7ZM52.587,45.624a3.375,3.375,0,0,1,3.352-3.337c4.1,0,6.471,4.077,7.532,6.724H55.88a3.322,3.322,0,0,1-3.293-3.388Zm22.685-3.4a3.428,3.428,0,0,1,3.361,3.4,3.324,3.324,0,0,1-3.3,3.387H67.744a17.649,17.649,0,0,1,1.311-2.588c1.732-2.758,3.826-4.2,6.216-4.2ZM21.145,18.187c0-8.128,7.06-14.74,15.692-14.74S52.53,10.059,52.53,18.187V25H21.145ZM3.086,76.17,8.629,28.025H18.12v5.8a1.513,1.513,0,1,0,3.025,0v-5.8H52.53v5.8a1.513,1.513,0,0,0,3.025,0v-5.8h8.458L66.037,45.58c-.153.271-.3.521-.428.783-.256-.508-.55-1.047-.883-1.578-2.289-3.645-5.356-5.577-8.824-5.577a6.436,6.436,0,0,0-6.4,6.362v.01a7.193,7.193,0,0,0,1,3.431H46.275a5.779,5.779,0,0,0-5.845,5.726v8.131a1.5,1.5,0,0,0,1.552,1.458h1.662v19.53a5.83,5.83,0,0,0,.778,2.78H13.131a10.344,10.344,0,0,1-7.75-3.381,8.975,8.975,0,0,1-2.3-7.084Zm0,0" transform="translate(953.391 1675.008)" fill="#212e78"/>
  </g>
</svg>
