<svg xmlns="http://www.w3.org/2000/svg" width="68.946" height="68.946" viewBox="0 0 68.946 68.946">
  <g id="comissao" transform="translate(-1 -1)">
    <path id="Caminho_156" data-name="Caminho 156" d="M48.818,56.9H32.6l1.438-1.438a1.111,1.111,0,0,0,0-1.572L20.691,40.55a1.109,1.109,0,0,0-.786-.326H3.224V38H1V58.017H3.224V55.793h9.611L24.761,65.55a1.111,1.111,0,0,0,.7.251H48.818a1.112,1.112,0,0,0,1.112-1.112V58.017A1.112,1.112,0,0,0,48.818,56.9Zm-1.112,6.672H25.862L13.936,53.82a1.111,1.111,0,0,0-.7-.251H3.224V42.448h16.22L31.677,54.681,28.8,57.556,22.915,51.67l-1.572,1.572,6.672,6.672a1.111,1.111,0,0,0,1.572,0l.786-.786H47.706Z" transform="translate(0 4.145)" fill="#17133e"/>
    <path id="Caminho_157" data-name="Caminho 157" d="M64.361,48.893V37.569a15.569,15.569,0,1,0-31.137,0V48.893a3.328,3.328,0,0,0,1.112,6.468H63.249a3.328,3.328,0,0,0,1.112-6.468Zm-1.112,4.244H34.336a1.112,1.112,0,0,1,0-2.224h3.336V48.689H35.448V37.569a13.344,13.344,0,0,1,26.689,0v11.12H59.913v2.224h3.336a1.112,1.112,0,0,1,0,2.224Z" transform="translate(3.361 2.353)" fill="#17133e"/>
    <path id="Caminho_158" data-name="Caminho 158" d="M47.448,32.448a2.226,2.226,0,0,1,2.224,2.224H51.9a4.443,4.443,0,0,0-3.336-4.29V28H46.336v2.382a4.439,4.439,0,0,0,1.112,8.738,2.224,2.224,0,1,1-2.224,2.224H43a4.443,4.443,0,0,0,3.336,4.29v2.382H48.56V45.635A4.439,4.439,0,0,0,47.448,36.9a2.224,2.224,0,0,1,0-4.448Z" transform="translate(4.706 3.025)" fill="#17133e"/>
    <path id="Caminho_159" data-name="Caminho 159" d="M54.344,20.9H51.5L54.273,13.5a1.112,1.112,0,0,0-1.455-1.423l-5.147,2.058-5.147-2.059A1.112,1.112,0,0,0,41.071,13.5L43.843,20.9H41V23.12H54.344Zm-8.126,0L44.037,15.08l3.222,1.289a1.106,1.106,0,0,0,.826,0l3.222-1.289L49.126,20.9Z" transform="translate(4.481 1.232)" fill="#17133e"/>
    <path id="Caminho_160" data-name="Caminho 160" d="M18.793,36.585a17.663,17.663,0,0,0,9.635-2.843L35.045,36.5a1.091,1.091,0,0,0,.428.087,1.112,1.112,0,0,0,1.026-1.54l-2.757-6.618a17.787,17.787,0,1,0-14.95,8.158Zm0-33.361A15.557,15.557,0,0,1,31.573,27.668a1.117,1.117,0,0,0-.115,1.063l1.948,4.676-4.676-1.948a1.105,1.105,0,0,0-1.063.115A15.565,15.565,0,1,1,18.793,3.224Z" transform="translate(0)" fill="#17133e"/>
    <path id="Caminho_161" data-name="Caminho 161" d="M12.448,16.9A4.448,4.448,0,1,0,8,12.448,4.453,4.453,0,0,0,12.448,16.9Zm0-6.672a2.224,2.224,0,1,1-2.224,2.224A2.226,2.226,0,0,1,12.448,10.224Z" transform="translate(0.784 0.784)" fill="#17133e"/>
    <path id="Caminho_162" data-name="Caminho 162" d="M22.448,18A4.448,4.448,0,1,0,26.9,22.448,4.453,4.453,0,0,0,22.448,18Zm0,6.672a2.224,2.224,0,1,1,2.224-2.224A2.226,2.226,0,0,1,22.448,24.672Z" transform="translate(1.905 1.905)" fill="#17133e"/>
    <path id="Caminho_163" data-name="Caminho 163" d="M0,0H25.162V2.224H0Z" transform="translate(9.107 26.902) rotate(-45)" fill="#17133e"/>
  </g>
</svg>
