<svg xmlns="http://www.w3.org/2000/svg" width="96.452" height="96.244" viewBox="0 0 96.452 96.244">
  <g id="Grupo_231" data-name="Grupo 231" transform="translate(-292 -1666.872)">
    <g id="credit-card" transform="translate(292 1666.356)">
      <g id="Grupo_52" data-name="Grupo 52" transform="translate(0 0.516)">
        <g id="Grupo_51" data-name="Grupo 51" transform="translate(0 0)">
          <rect id="Retângulo_39" data-name="Retângulo 39" width="9.666" height="3.222" transform="translate(69.27 64.231)" fill="#212e78"/>
          <rect id="Retângulo_40" data-name="Retângulo 40" width="9.666" height="3.222" transform="translate(56.383 64.231)" fill="#212e78"/>
          <rect id="Retângulo_41" data-name="Retângulo 41" width="9.666" height="3.222" transform="translate(43.495 64.231)" fill="#212e78"/>
          <path id="Caminho_94" data-name="Caminho 94" d="M95.024,33.822,63.149,1.942A4.812,4.812,0,0,0,59.724.516h-.014a4.767,4.767,0,0,0-3.4,1.426L22.5,35.75H4.833A4.833,4.833,0,0,0,0,40.583V85.689a4.833,4.833,0,0,0,4.833,4.833H28.7l4.807,4.812a4.812,4.812,0,0,0,3.425,1.426h.013a4.769,4.769,0,0,0,3.4-1.426l4.817-4.812h37a4.833,4.833,0,0,0,4.833-4.833v-37l8.026-8.026a4.807,4.807,0,0,0,.008-6.845ZM74.531,17.885,56.666,35.75H42.986L67.691,11.045ZM58.593,4.213a1.588,1.588,0,0,1,2.246-.027l.027.027,4.548,4.554L38.429,35.75H27.054ZM38.063,93.063a1.567,1.567,0,0,1-1.128.483,1.611,1.611,0,0,1-1.147-.483l-2.531-2.54h7.347Zm45.705-7.373A1.611,1.611,0,0,1,82.158,87.3H4.833a1.611,1.611,0,0,1-1.611-1.611V63.136H83.769Zm0-25.775H3.222V50.249H83.769Zm0-12.887H3.222V40.583a1.611,1.611,0,0,1,1.611-1.611H82.158a1.611,1.611,0,0,1,1.611,1.611Zm8.978-8.646h0L86.99,44.137V40.583a4.833,4.833,0,0,0-4.833-4.833H61.216L76.8,20.163,92.74,36.1a1.61,1.61,0,0,1,.483,1.152A1.579,1.579,0,0,1,92.746,38.381Z" transform="translate(0 -0.516)" fill="#212e78"/>
          <path id="Caminho_95" data-name="Caminho 95" d="M34.454,370.81a6.439,6.439,0,0,0,.659-.659,6.387,6.387,0,0,0,8.48,1.092,6.55,6.55,0,0,0,2.8-5.31,6.444,6.444,0,0,0-6.444-6.444,4.887,4.887,0,0,0-.954.081l-.042.011H38.9a6.361,6.361,0,0,0-3.791,2.139,6.444,6.444,0,1,0-.659,9.089Zm5.084-8.064a1.948,1.948,0,0,1,.408-.034,3.222,3.222,0,0,1,3.222,3.222,3.159,3.159,0,0,1-.633,1.89c-.058.079-.1.161-.169.243-.011.013-.027.021-.04.034a3.2,3.2,0,1,1-2.787-5.355Zm-9.258-.034a3.222,3.222,0,1,1-3.222,3.222A3.222,3.222,0,0,1,30.28,362.712Z" transform="translate(-19.004 -287.204)" fill="#212e78"/>
        </g>
      </g>
    </g>
  </g>
</svg>
