<svg xmlns="http://www.w3.org/2000/svg" width="80.336" height="67.894" viewBox="0 0 80.336 67.894">
  <g id="Grupo_5" data-name="Grupo 5" transform="translate(-292 -34.713)">
    <g id="Layer_2" data-name="Layer 2" transform="translate(292 34.713)">
      <path id="Caminho_1" data-name="Caminho 1" d="M31.056,13.264H11.475V11.407A11.407,11.407,0,0,0,.068,0H0V44.077A23.85,23.85,0,0,0,18.3,67.235v-.467a12.465,12.465,0,0,1,5.485-10.328A12.375,12.375,0,0,1,11.475,44.066V28.687a3.937,3.937,0,0,1,3.937-3.937H31.05a12.122,12.122,0,0,1,10.687,6.429,25.931,25.931,0,0,1,5.6-11.042l.146-.152a23.451,23.451,0,0,0-16.425-6.722Z" fill="#c3a30a"/>
      <path id="Caminho_7" data-name="Caminho 7" d="M82.907,23.58A23.861,23.861,0,0,0,59.085,47.121V57.943a8.826,8.826,0,0,1-8.814,8.814H46.687A10.327,10.327,0,0,0,36.36,77.085V78.21H50.271A20.312,20.312,0,0,0,70.56,57.943V47.121A12.375,12.375,0,0,1,82.935,35.055h2.981A10.327,10.327,0,0,0,96.244,24.733V23.58Z" transform="translate(-15.908 -10.316)" fill="#c3a30a"/>
    </g>
  </g>
</svg>
