<svg xmlns="http://www.w3.org/2000/svg" width="529.509" height="498.455" viewBox="0 0 529.509 498.455">
  <g id="Grupo_225" data-name="Grupo 225" transform="translate(-43.951 252.228)">
    <rect id="Retângulo_30" data-name="Retângulo 30" width="521.72" height="206.936" rx="103.468" transform="translate(437.698 246.228) rotate(-139)" fill="#fff"/>
    <g id="Layer_2" data-name="Layer 2" transform="translate(288 44.455)">
      <path id="Caminho_55" data-name="Caminho 55" d="M21.5,9.182H7.944V7.9A7.9,7.9,0,0,0,.047,0H0V30.514A16.511,16.511,0,0,0,12.671,46.546v-.323a8.629,8.629,0,0,1,3.8-7.15,8.567,8.567,0,0,1-8.524-8.567V19.86a2.726,2.726,0,0,1,2.726-2.726H21.5a8.392,8.392,0,0,1,7.4,4.451,17.952,17.952,0,0,1,3.875-7.644l.1-.105A16.234,16.234,0,0,0,21.5,9.182Z" fill="#9b7937"/>
      <rect id="Retângulo_26" data-name="Retângulo 26" width="80.623" height="7.224" transform="translate(59.992 39.949)" fill="#99851f"/>
      <path id="Caminho_56" data-name="Caminho 56" d="M191.1,109.262a2.745,2.745,0,0,0,.3-1.324,2.438,2.438,0,0,0-.689-1.826,2.663,2.663,0,0,0-1.947-.662H187.21v4.984h1.558a3.061,3.061,0,0,0,1.406-.3A2.068,2.068,0,0,0,191.1,109.262Zm-2.336.44h-.752v-3.532h.752a1.92,1.92,0,0,1,1.394.463,2.04,2.04,0,0,1,0,2.609,1.947,1.947,0,0,1-1.4.46Z" transform="translate(-114.309 -64.383)" fill="#fff"/>
      <rect id="Retângulo_27" data-name="Retângulo 27" width="0.783" height="4.984" transform="translate(82.932 41.067)" fill="#fff"/>
      <path id="Caminho_57" data-name="Caminho 57" d="M234.464,109.29a2.527,2.527,0,0,0,.358-1.168v-.561h-2.66v.666h1.947l-.031.144a1.818,1.818,0,0,1-.214.553,1.5,1.5,0,0,1-.576.549,1.768,1.768,0,0,1-1.655-.027,1.507,1.507,0,0,1-.588-.619,2.274,2.274,0,0,1,0-1.947,1.523,1.523,0,0,1,.58-.623,1.643,1.643,0,0,1,.833-.218,1.608,1.608,0,0,1,.923.265,1.441,1.441,0,0,1,.549.689l.039.1h.8l-.062-.2a2.165,2.165,0,0,0-.814-1.168,2.4,2.4,0,0,0-1.437-.428,2.469,2.469,0,0,0-1.258.323,2.336,2.336,0,0,0-.857.907,2.963,2.963,0,0,0,0,2.613,2.274,2.274,0,0,0,.861.907,2.484,2.484,0,0,0,1.262.323,2.383,2.383,0,0,0,1.168-.3A2.266,2.266,0,0,0,234.464,109.29Z" transform="translate(-140.461 -64.294)" fill="#fff"/>
      <rect id="Retângulo_28" data-name="Retângulo 28" width="0.783" height="4.984" transform="translate(100.203 41.067)" fill="#fff"/>
      <path id="Caminho_58" data-name="Caminho 58" d="M275.064,110.444h.779v-4.3h1.332v-.689H273.74v.689h1.324Z" transform="translate(-167.143 -64.393)" fill="#fff"/>
      <path id="Caminho_59" data-name="Caminho 59" d="M297.732,105.73l-1.842,4.879h.822l.424-1.141h1.912l.417,1.141h.841l-1.842-4.879Zm-.335,3.053.709-1.908.7,1.908Z" transform="translate(-180.668 -64.558)" fill="#fff"/>
      <path id="Caminho_60" data-name="Caminho 60" d="M322.333,105.46h-.783v4.984h2.481v-.685h-1.7Z" transform="translate(-196.336 -64.393)" fill="#fff"/>
      <path id="Caminho_61" data-name="Caminho 61" d="M68.584,23.58a16.519,16.519,0,0,0-16.491,16.3v7.492a6.11,6.11,0,0,1-6.1,6.1H43.51a7.15,7.15,0,0,0-7.15,7.15V61.4h9.63a14.062,14.062,0,0,0,14.046-14.03V39.877A8.567,8.567,0,0,1,68.6,31.524h2.064a7.15,7.15,0,0,0,7.15-7.146v-.8Z" transform="translate(-22.201 -14.398)" fill="#99851f"/>
      <path id="Caminho_62" data-name="Caminho 62" d="M433.538,43.79V55.028a4.981,4.981,0,0,1-9.961,0V43.79H419.64V55.028a8.917,8.917,0,1,0,17.835,0V43.79Z" transform="translate(-256.229 -26.738)" fill="#99851f"/>
      <path id="Caminho_63" data-name="Caminho 63" d="M485.59,59.971h-10.6V43.62H471.05V63.908h14.54Z" transform="translate(-287.619 -26.634)" fill="#99851f"/>
      <path id="Caminho_64" data-name="Caminho 64" d="M384.118,39.487a7.231,7.231,0,0,0-1.285-4.474h0a7.683,7.683,0,0,0-3.041-2.426,28.1,28.1,0,0,0-3.933-1.3V23.444a4.459,4.459,0,0,1,1.791,1.09,5.756,5.756,0,0,1,1.476,2.664l.051.2h4.63l-.066-.323a10.4,10.4,0,0,0-2.932-5.545A8.863,8.863,0,0,0,375.87,19.2V16.52h-2.547v2.562a8.72,8.72,0,0,0-5.658,2.153,7.449,7.449,0,0,0-2.383,5.724,6.9,6.9,0,0,0,1.246,4.311,7.457,7.457,0,0,0,2.952,2.336,29.083,29.083,0,0,0,3.843,1.273v8.041a5,5,0,0,1-1.885-1.063,5.452,5.452,0,0,1-1.663-3.065l-.043-.218H365.06l.051.312a9.778,9.778,0,0,0,3.267,6.036,10.039,10.039,0,0,0,4.942,2.231v2.726h2.547V47.334a8.55,8.55,0,0,0,5.907-2.2,7.442,7.442,0,0,0,2.344-5.646Zm-11.9-9.3a4.587,4.587,0,0,1-1.776-1.227,2.928,2.928,0,0,1-.646-2.005,3.633,3.633,0,0,1,1.083-2.788,3.894,3.894,0,0,1,2.453-.985v7.4A11.666,11.666,0,0,1,372.217,30.192Zm6.328,12.033a3.715,3.715,0,0,1-2.675,1.012V35.6c.46.144.876.288,1.219.421a4.6,4.6,0,0,1,1.815,1.266,3.2,3.2,0,0,1,.674,2.157,3.781,3.781,0,0,1-1.032,2.784Z" transform="translate(-222.903 -10.087)" fill="#99851f"/>
      <path id="Caminho_65" data-name="Caminho 65" d="M175.383,31.012a8.08,8.08,0,0,0-8.072-8.072h-14.1V51.3h14.1A8.065,8.065,0,0,0,172.6,37.122a8.065,8.065,0,0,0,2.784-6.11Zm-3.933,12.2a4.143,4.143,0,0,1-4.139,4.139H157.147V39.089H167.31a4.143,4.143,0,0,1,4.139,4.124Zm-14.3-8.061V26.877H167.31a4.139,4.139,0,1,1,0,8.275Z" transform="translate(-93.549 -14.007)" fill="#99851f"/>
      <path id="Caminho_66" data-name="Caminho 66" d="M325.821,53.355l9.233-10.136h-5.323l-7.2,7.909V43.04H318.59V63.488h3.937v-7.9l7.2,7.9h5.323Z" transform="translate(-194.528 -26.28)" fill="#99851f"/>
      <path id="Caminho_67" data-name="Caminho 67" d="M225.953,44h-2.364a7.687,7.687,0,0,0-7.679,7.679V64.14h3.964V51.679a3.719,3.719,0,0,1,3.715-3.715h2.364a3.719,3.719,0,0,1,3.715,3.715V64.14h3.964V51.679A7.687,7.687,0,0,0,225.953,44Z" transform="translate(-131.833 -26.866)" fill="#99851f"/>
      <path id="Caminho_68" data-name="Caminho 68" d="M277.338,43.79h-2.379a7.691,7.691,0,0,0-7.679,7.679V63.93h3.98V51.469a3.719,3.719,0,0,1,3.7-3.7h2.364a3.719,3.719,0,0,1,3.715,3.715V63.942H285V51.481A7.687,7.687,0,0,0,277.338,43.79Z" transform="translate(-163.199 -26.738)" fill="#99851f"/>
      <rect id="Retângulo_29" data-name="Retângulo 29" width="10.829" height="3.964" transform="translate(87.122 28.454)" fill="#99851f"/>
    </g>
  </g>
</svg>
