<svg xmlns="http://www.w3.org/2000/svg" width="70.004" height="70.004" viewBox="0 0 70.004 70.004">
  <g id="marketing" transform="translate(-1 -1)">
    <path id="Caminho_176" data-name="Caminho 176" d="M20.195,19.066H18.456A6.747,6.747,0,0,0,19.8,16.807h1.524a3.379,3.379,0,0,0,1.129-6.567v-3.6A5.652,5.652,0,0,0,16.807,1H10.033A5.652,5.652,0,0,0,4.387,6.645v3.6a3.379,3.379,0,0,0,1.129,6.567H7.041a6.784,6.784,0,0,0,1.344,2.258H6.645A5.652,5.652,0,0,0,1,24.711V41.647a3.391,3.391,0,0,0,3.387,3.387H5.516v19.4a3.383,3.383,0,0,0-2.258,3.18v2.258A1.129,1.129,0,0,0,4.387,71H22.453a1.129,1.129,0,0,0,1.129-1.129V67.617a3.383,3.383,0,0,0-2.258-3.18v-19.4h1.129a3.391,3.391,0,0,0,3.387-3.387V24.711A5.652,5.652,0,0,0,20.195,19.066Zm-4.516,2.258a2.258,2.258,0,1,1-4.516,0Zm5.645-6.775H20.195V12.291h1.129a1.129,1.129,0,0,1,0,2.258ZM6.645,6.645a3.391,3.391,0,0,1,3.387-3.387h6.775a3.391,3.391,0,0,1,3.387,3.387V9.84a3.394,3.394,0,0,1-2.258-3.194,1.129,1.129,0,1,0-2.258,0c0,1.571-3.416,3.387-5.645,3.387H6.645Zm-1.129,7.9a1.129,1.129,0,0,1,0-2.258H6.645v2.258Zm3.387,0V12.291h1.129a10.561,10.561,0,0,0,6.489-2.68,5.673,5.673,0,0,0,1.415,1.547v3.392a4.516,4.516,0,1,1-9.033,0ZM6.645,21.324H8.9a4.516,4.516,0,1,0,9.033,0h2.258a3.391,3.391,0,0,1,3.387,3.387V38.26H21.324V25.84H19.066V38.26H7.775V25.84H5.516V38.26H3.258V24.711A3.391,3.391,0,0,1,6.645,21.324ZM4.387,42.777a1.13,1.13,0,0,1-1.129-1.129V40.518H5.516v2.258Zm7.9,25.969H5.516V67.617a1.13,1.13,0,0,1,1.129-1.129h5.645Zm0-23.711V64.229H7.775V40.518H19.066V64.229H14.549V45.035Zm9.033,23.711H14.549V66.488h5.645a1.13,1.13,0,0,1,1.129,1.129Zm1.129-25.969H21.324V40.518h2.258v1.129A1.13,1.13,0,0,1,22.453,42.777Z" fill="#17133e"/>
    <path id="Caminho_177" data-name="Caminho 177" d="M35.291,42.066a1.127,1.127,0,0,0,.839-.374L46.292,30.4a1.13,1.13,0,0,0,.064-1.433l-3.387-4.516a1.13,1.13,0,0,0-.9-.452H28.516a1.13,1.13,0,0,0-.9.452l-3.387,4.516A1.128,1.128,0,0,0,24.29,30.4L34.452,41.692A1.127,1.127,0,0,0,35.291,42.066Zm1.87-11.291-1.87,6.233-1.87-6.233Zm-3-2.258,1.129-1.505,1.129,1.505Zm5.356,2.258h3.4l-5.1,5.666Zm-1.969-4.516h2.258l-1.129,1.505ZM31.9,27.763l-1.129-1.505h2.258Zm-2.258.753H27.387l1.129-1.505Zm1.418,2.258,1.7,5.666-5.1-5.666Zm12.131-2.258H40.936l1.129-1.505Z" transform="translate(2.969 2.969)" fill="#17133e"/>
    <path id="Caminho_178" data-name="Caminho 178" d="M68.035,35.935a8.995,8.995,0,0,0-2.5-6.225l1.236-2.267-1.983-1.082-1.038,1.9a8.944,8.944,0,0,0-3.964-1.322A28.144,28.144,0,0,0,41.842,9.123a9,9,0,0,0-2.28-4.252L40.8,2.6,38.816,1.522l-1.038,1.9a8.95,8.95,0,0,0-4.746-1.363A9.029,9.029,0,0,0,31.9,20.049v4.594h2.258V20.049a9.035,9.035,0,0,0,7.88-8.476A25.9,25.9,0,0,1,57.436,27.048a9.041,9.041,0,0,0-7.388,7.758H47.711v2.258h2.336a9.041,9.041,0,0,0,7.388,7.758A25.879,25.879,0,0,1,41.921,60.341a9,9,0,0,0-2.359-4.662L40.8,53.412,38.816,52.33l-1.038,1.9a8.983,8.983,0,0,0-3.616-1.284V47.226H31.9v5.723a9.029,9.029,0,1,0,10.122,9.735A28.122,28.122,0,0,0,59.783,44.928a9.04,9.04,0,0,0,8.251-8.993Zm-35-18.066A6.775,6.775,0,1,1,36.7,5.4L32.883,12.4,30.549,9.288l-1.807,1.355,3.387,4.516a1.13,1.13,0,0,0,.9.452l.081,0a1.131,1.131,0,0,0,.91-.586l4.383-8.036a6.762,6.762,0,0,1-5.375,10.882Zm0,50.809A6.775,6.775,0,1,1,36.7,56.214l-3.815,6.995L30.549,60.1l-1.807,1.355,3.387,4.516a1.13,1.13,0,0,0,.9.452l.081,0a1.131,1.131,0,0,0,.91-.586L38.407,57.8a6.762,6.762,0,0,1-5.375,10.882ZM59,42.709a6.775,6.775,0,1,1,3.665-12.464L58.852,37.24l-2.334-3.112-1.807,1.355L58.1,40a1.13,1.13,0,0,0,.9.452l.081,0a1.131,1.131,0,0,0,.91-.586l4.383-8.036A6.762,6.762,0,0,1,59,42.709Z" transform="translate(2.969 0.067)" fill="#17133e"/>
  </g>
</svg>
