<svg id="medico" xmlns="http://www.w3.org/2000/svg" width="67.86" height="67.86" viewBox="0 0 67.86 67.86">
  <g id="Grupo_59" data-name="Grupo 59">
    <g id="Grupo_58" data-name="Grupo 58">
      <path id="Caminho_118" data-name="Caminho 118" d="M60.792,0H7.069A7.077,7.077,0,0,0,0,7.069V60.791A7.077,7.077,0,0,0,7.069,67.86H60.791a7.077,7.077,0,0,0,7.069-7.069V7.069A7.077,7.077,0,0,0,60.792,0Zm4.241,60.792a4.241,4.241,0,0,1-4.241,4.241H7.069a4.241,4.241,0,0,1-4.241-4.241V7.069A4.241,4.241,0,0,1,7.069,2.827H60.791a4.241,4.241,0,0,1,4.241,4.241V60.792Z" fill="#17133e"/>
    </g>
  </g>
  <g id="Grupo_61" data-name="Grupo 61" transform="translate(5.655 11.31)">
    <g id="Grupo_60" data-name="Grupo 60">
      <rect id="Retângulo_59" data-name="Retângulo 59" width="56.55" height="2.827" fill="#17133e"/>
    </g>
  </g>
  <g id="Grupo_63" data-name="Grupo 63" transform="translate(7.069 5.655)">
    <g id="Grupo_62" data-name="Grupo 62">
      <rect id="Retângulo_60" data-name="Retângulo 60" width="2.827" height="2.827" fill="#17133e"/>
    </g>
  </g>
  <g id="Grupo_65" data-name="Grupo 65" transform="translate(12.724 5.655)">
    <g id="Grupo_64" data-name="Grupo 64">
      <rect id="Retângulo_61" data-name="Retângulo 61" width="2.827" height="2.827" fill="#17133e"/>
    </g>
  </g>
  <g id="Grupo_67" data-name="Grupo 67" transform="translate(57.964 5.655)">
    <g id="Grupo_66" data-name="Grupo 66">
      <rect id="Retângulo_62" data-name="Retângulo 62" width="2.827" height="2.827" fill="#17133e"/>
    </g>
  </g>
  <g id="Grupo_69" data-name="Grupo 69" transform="translate(15.551 21.206)">
    <g id="Grupo_68" data-name="Grupo 68">
      <path id="Caminho_119" data-name="Caminho 119" d="M135.712,160a18.379,18.379,0,1,0,18.379,18.379A18.379,18.379,0,0,0,135.712,160Zm0,33.93a15.551,15.551,0,1,1,15.551-15.551A15.551,15.551,0,0,1,135.712,193.93Z" transform="translate(-117.333 -160)" fill="#17133e"/>
    </g>
  </g>
  <g id="Grupo_71" data-name="Grupo 71" transform="translate(22.62 28.275)">
    <g id="Grupo_70" data-name="Grupo 70">
      <path id="Caminho_120" data-name="Caminho 120" d="M190.46,220.4h-4.241v-4.241a2.827,2.827,0,0,0-2.827-2.827h-2.827a2.827,2.827,0,0,0-2.827,2.827V220.4H173.5a2.827,2.827,0,0,0-2.827,2.827v2.827a2.827,2.827,0,0,0,2.827,2.827h4.241v4.241a2.827,2.827,0,0,0,2.827,2.827h2.827a2.827,2.827,0,0,0,2.827-2.827v-4.241h4.241a2.827,2.827,0,0,0,2.827-2.827V223.23A2.827,2.827,0,0,0,190.46,220.4Zm0,5.655h-5.655a1.414,1.414,0,0,0-1.414,1.414v5.655h-2.827v-5.655a1.414,1.414,0,0,0-1.414-1.414H173.5V223.23h5.655a1.414,1.414,0,0,0,1.414-1.414v-5.655h2.827v5.655a1.414,1.414,0,0,0,1.414,1.414h5.655Z" transform="translate(-170.668 -213.334)" fill="#17133e"/>
    </g>
  </g>
  <g id="Grupo_73" data-name="Grupo 73" transform="translate(5.655 16.965)">
    <g id="Grupo_72" data-name="Grupo 72">
      <path id="Caminho_121" data-name="Caminho 121" d="M44.08,128a1.414,1.414,0,0,0-1.414,1.414v5.655h2.828v-4.241h4.241V128Z" transform="translate(-42.666 -128)" fill="#17133e"/>
    </g>
  </g>
  <g id="Grupo_75" data-name="Grupo 75" transform="translate(55.136 55.136)">
    <g id="Grupo_74" data-name="Grupo 74">
      <path id="Caminho_122" data-name="Caminho 122" d="M420.241,416v4.241H416v2.827h5.655a1.414,1.414,0,0,0,1.414-1.414V416Z" transform="translate(-416 -416)" fill="#17133e"/>
    </g>
  </g>
</svg>
