<svg xmlns="http://www.w3.org/2000/svg" width="90.721" height="90.72" viewBox="0 0 90.721 90.72">
  <g id="Grupo_225" data-name="Grupo 225" transform="translate(-290.75 -1423.363)">
    <g id="Grupo_50" data-name="Grupo 50" transform="translate(-50.74 -23.245)">
      <g id="g992" transform="translate(360.615 1497.622)">
        <path id="path994" d="M-44.475-15.479a12.878,12.878,0,0,1-9.164-3.794L-66.871-32.5a2.515,2.515,0,0,0-3.477,0l-13.28,13.28a12.881,12.881,0,0,1-9.164,3.794H-95.4L-78.642,1.328a13.4,13.4,0,0,0,18.954,0l16.807-16.807Z" transform="translate(95.4 33.202)" fill="none" stroke="#212f7b" stroke-width="2.5"/>
      </g>
      <g id="g996" transform="translate(360.616 1447.858)">
        <path id="path998" d="M-2.277-18.064a12.879,12.879,0,0,1,9.164,3.795L20.168-.987a2.461,2.461,0,0,0,3.477,0L36.877-14.221a12.88,12.88,0,0,1,9.164-3.794h1.594L30.828-34.822a13.4,13.4,0,0,0-18.954,0L-4.884-18.064Z" transform="translate(4.884 38.747)" fill="none" stroke="#212f7b" stroke-width="2.5"/>
      </g>
      <g id="g1000" transform="translate(342.74 1472.295)">
        <path id="path1002" d="M-73.618-8.905-83.775-19.062a1.933,1.933,0,0,1-.721.146h-4.617a9.126,9.126,0,0,0-6.411,2.656L-108.757-3.028a6.332,6.332,0,0,1-4.49,1.858,6.335,6.335,0,0,1-4.491-1.857L-131.02-16.308a9.126,9.126,0,0,0-6.411-2.656h-5.678a1.926,1.926,0,0,1-.682-.138l-10.2,10.2a13.4,13.4,0,0,0,0,18.954l10.2,10.2a1.928,1.928,0,0,1,.683-.138h5.678a9.127,9.127,0,0,0,6.411-2.656l13.28-13.28a6.5,6.5,0,0,1,8.983,0L-95.524,17.4a9.124,9.124,0,0,0,6.411,2.656H-84.5a1.935,1.935,0,0,1,.722.145l10.156-10.156a13.4,13.4,0,0,0,0-18.954" transform="translate(157.913 19.102)" fill="none" stroke="#212f7b" stroke-width="2.5"/>
      </g>
    </g>
  </g>
</svg>
