<svg xmlns="http://www.w3.org/2000/svg" width="317.499" height="537.013" viewBox="0 0 317.499 537.013">
  <g id="Grupo_226" data-name="Grupo 226" transform="translate(-104.318 0.526)">
    <g id="Grupo_10" data-name="Grupo 10" transform="translate(104.999 0)">
      <path id="Caminho_18" data-name="Caminho 18" d="M417.877,212.724A20.935,20.935,0,0,0,400.2,203H284V20.936a20.936,20.936,0,0,0-39.876-8.921L107,303.1a20.936,20.936,0,0,0,18.94,29.858H242.131V515.023a20.936,20.936,0,0,0,39.876,8.922L419.138,232.86A20.932,20.932,0,0,0,417.877,212.724ZM284,421.458V312.022a20.936,20.936,0,0,0-20.936-20.936H158.942L242.131,114.5V223.938a20.936,20.936,0,0,0,20.936,20.936H367.192Z" transform="translate(-104.999 0)" fill="none" stroke="#2d3136" stroke-width="1"/>
    </g>
  </g>
</svg>
