<svg xmlns="http://www.w3.org/2000/svg" width="87.872" height="88.22" viewBox="0 0 87.872 88.22">
  <g id="Grupo_227" data-name="Grupo 227" transform="translate(-642.5 -1424.613)">
    <g id="Grupo_226" data-name="Grupo 226">
      <g id="file-transfer" transform="translate(641.49 1424.613)">
        <g id="Grupo_47" data-name="Grupo 47" transform="translate(1.01 0)">
          <circle id="Elipse_1" data-name="Elipse 1" cx="1.387" cy="1.387" r="1.387" transform="matrix(0.987, -0.16, 0.16, 0.987, 19.63, 21.99)" fill="#212f7b"/>
          <path id="Caminho_69" data-name="Caminho 69" d="M84.123,0H51.187a4.765,4.765,0,0,0-4.759,4.759V9.025a1.292,1.292,0,0,0,2.585,0V4.759a2.177,2.177,0,0,1,2.174-2.174H84.123A2.177,2.177,0,0,1,86.3,4.759V62.407H61.313a4.732,4.732,0,0,0,.528-2.176V34.625a4.432,4.432,0,0,0-.069-.79,4.712,4.712,0,0,0-1.326-2.576L54.156,24.97c-1.293-1.435-3.365-1.466-5.144-1.393V15.056a1.292,1.292,0,0,0-2.585,0v8.521H43.464V21.054a4.765,4.765,0,0,0-4.759-4.759H5.769A4.765,4.765,0,0,0,1.01,21.054V66.513a1.292,1.292,0,0,0,2.585,0V21.054A2.177,2.177,0,0,1,5.769,18.88H38.705a2.177,2.177,0,0,1,2.174,2.174v2.523H32.811a4.765,4.765,0,0,0-4.759,4.759V48.791a1.292,1.292,0,1,0,2.585,0V28.336a2.177,2.177,0,0,1,2.174-2.174H50.068v6.161a3.029,3.029,0,0,0,3.026,3.026h6.162V60.231a2.178,2.178,0,0,1-2.174,2.176H32.811a2.178,2.178,0,0,1-2.174-2.176v-5.41a1.292,1.292,0,0,0-2.585,0v5.41a4.765,4.765,0,0,0,4.759,4.761H40.88V78.7H3.595V72.544a1.292,1.292,0,1,0-2.585,0V83.461A4.765,4.765,0,0,0,5.769,88.22H38.705a4.765,4.765,0,0,0,4.759-4.759V64.992h2.964v2.174a4.765,4.765,0,0,0,4.759,4.759H84.123a4.765,4.765,0,0,0,4.759-4.759V4.759A4.765,4.765,0,0,0,84.123,0ZM38.705,85.636H5.769a2.177,2.177,0,0,1-2.174-2.174V81.286H40.88v2.175a2.177,2.177,0,0,1-2.174,2.174ZM52.653,32.322v-5.2l5.642,5.642h-5.2A.442.442,0,0,1,52.653,32.322ZM84.123,69.341H51.187a2.177,2.177,0,0,1-2.174-2.174V64.992H86.3v2.175A2.177,2.177,0,0,1,84.123,69.341Z" transform="translate(-1.01 0)" fill="#212f7b"/>
          <circle id="Elipse_2" data-name="Elipse 2" cx="1.387" cy="1.387" r="1.387" transform="translate(65.259 5.453)" fill="#212f7b"/>
          <path id="Caminho_70" data-name="Caminho 70" d="M198.374,169.021H191.44a1.292,1.292,0,1,0,0,2.585h6.934a1.292,1.292,0,0,0,0-2.585Z" transform="translate(-157.558 -139.898)" fill="#212f7b"/>
          <path id="Caminho_71" data-name="Caminho 71" d="M191.44,203.8h3.467a1.292,1.292,0,0,0,0-2.585H191.44a1.292,1.292,0,1,0,0,2.585Z" transform="translate(-157.558 -166.545)" fill="#212f7b"/>
          <path id="Caminho_72" data-name="Caminho 72" d="M254.85,233.409H243.755a1.292,1.292,0,1,0,0,2.585H254.85a1.292,1.292,0,0,0,0-2.585Z" transform="translate(-200.859 -193.191)" fill="#212f7b"/>
          <path id="Caminho_73" data-name="Caminho 73" d="M191.44,235.994h3.467a1.292,1.292,0,1,0,0-2.585H191.44a1.292,1.292,0,1,0,0,2.585Z" transform="translate(-157.558 -193.191)" fill="#212f7b"/>
          <path id="Caminho_74" data-name="Caminho 74" d="M291.49,265.6h-3.467a1.292,1.292,0,1,0,0,2.585h3.467a1.292,1.292,0,1,0,0-2.585Z" transform="translate(-237.5 -219.839)" fill="#212f7b"/>
          <path id="Caminho_75" data-name="Caminho 75" d="M191.44,268.189h11.095a1.292,1.292,0,1,0,0-2.585H191.44a1.292,1.292,0,0,0,0,2.585Z" transform="translate(-157.558 -219.839)" fill="#212f7b"/>
          <path id="Caminho_76" data-name="Caminho 76" d="M191.44,300.383h20.109a1.292,1.292,0,1,0,0-2.585H191.44a1.292,1.292,0,1,0,0,2.585Z" transform="translate(-157.558 -246.486)" fill="#212f7b"/>
          <path id="Caminho_77" data-name="Caminho 77" d="M191.44,332.577h20.109a1.292,1.292,0,1,0,0-2.585H191.44a1.292,1.292,0,1,0,0,2.585Z" transform="translate(-157.558 -273.133)" fill="#212f7b"/>
          <path id="Caminho_78" data-name="Caminho 78" d="M289.988,434.623a1.292,1.292,0,0,0-1.292,1.292v3.64a2.177,2.177,0,0,1-2.175,2.175H274.039l1.261-1.261a1.292,1.292,0,1,0-1.827-1.828l-3.467,3.467a1.292,1.292,0,0,0,0,1.828l3.467,3.467a1.292,1.292,0,1,0,1.827-1.828l-1.261-1.261h12.482a4.765,4.765,0,0,0,4.759-4.759v-3.64A1.292,1.292,0,0,0,289.988,434.623Z" transform="translate(-223.343 -359.735)" fill="#212f7b"/>
          <path id="Caminho_79" data-name="Caminho 79" d="M118,14.165a1.292,1.292,0,0,0,1.292-1.292V9.232a2.177,2.177,0,0,1,2.175-2.175h12.482l-1.261,1.261a1.292,1.292,0,0,0,1.827,1.828l3.467-3.467a1.292,1.292,0,0,0,0-1.828l-3.467-3.467a1.292,1.292,0,1,0-1.827,1.828l1.261,1.261H121.464A4.765,4.765,0,0,0,116.7,9.232v3.64A1.292,1.292,0,0,0,118,14.165Z" transform="translate(-96.77 -0.833)" fill="#212f7b"/>
        </g>
      </g>
    </g>
  </g>
</svg>
