<svg xmlns="http://www.w3.org/2000/svg" width="67.947" height="67.947" viewBox="0 0 67.947 67.947">
  <g id="retorno-de-investimento" transform="translate(-1 -1)">
    <path id="Caminho_164" data-name="Caminho 164" d="M33.48,40.379a4.374,4.374,0,0,0-1.1-8.612,2.192,2.192,0,1,1,2.192-2.192h2.192a4.379,4.379,0,0,0-3.288-4.228V23H31.288v2.347a4.374,4.374,0,0,0,1.1,8.612,2.192,2.192,0,1,1-2.192,2.192H28a4.379,4.379,0,0,0,3.288,4.228v2.347H33.48Z" transform="translate(2.59 2.11)" fill="#17133e"/>
    <path id="Caminho_165" data-name="Caminho 165" d="M33.247,19A14.263,14.263,0,0,0,19,33.247h2.192A12.069,12.069,0,0,1,33.247,21.192Z" transform="translate(1.727 1.727)" fill="#17133e"/>
    <path id="Caminho_166" data-name="Caminho 166" d="M44.055,32A12.069,12.069,0,0,1,32,44.055v2.192A14.263,14.263,0,0,0,46.247,32Z" transform="translate(2.974 2.974)" fill="#17133e"/>
    <path id="Caminho_167" data-name="Caminho 167" d="M22.4,8.164a28.383,28.383,0,0,0-9.117,6.348l1.577,1.522a26.25,26.25,0,0,1,8.418-5.862Z" transform="translate(1.178 0.687)" fill="#17133e"/>
    <path id="Caminho_168" data-name="Caminho 168" d="M25.961,6.754c-.772.19-1.539.413-2.282.664l.7,2.077c.684-.231,1.392-.437,2.1-.614Z" transform="translate(2.175 0.552)" fill="#17133e"/>
    <path id="Caminho_169" data-name="Caminho 169" d="M30.122,6.082c-.749.059-1.516.151-2.28.273l.346,2.164c.706-.114,1.414-.2,2.1-.251Z" transform="translate(2.575 0.487)" fill="#17133e"/>
    <path id="Caminho_170" data-name="Caminho 170" d="M34.974,3.192A31.573,31.573,0,0,1,57.447,12.5a1.128,1.128,0,0,0,1.55,0l2.28-2.28v8.314H52.962l2.16-2.16a1.1,1.1,0,0,0,0-1.55A28.307,28.307,0,0,0,34.974,6.48V8.671a26.113,26.113,0,0,1,17.808,6.945l-3.24,3.24a1.1,1.1,0,0,0,.775,1.871H62.372a1.1,1.1,0,0,0,1.1-1.1V7.576A1.1,1.1,0,0,0,61.6,6.8l-3.387,3.388A33.974,33.974,0,0,0,1,34.974H3.192A31.818,31.818,0,0,1,34.974,3.192Z" fill="#17133e"/>
    <path id="Caminho_171" data-name="Caminho 171" d="M51.595,50.177l-1.577-1.522A26.249,26.249,0,0,1,41.6,54.517l.878,2.008A28.4,28.4,0,0,0,51.595,50.177Z" transform="translate(3.895 4.571)" fill="#17133e"/>
    <path id="Caminho_172" data-name="Caminho 172" d="M38.285,57.486c.772-.19,1.539-.413,2.282-.664l-.7-2.077c-.684.231-1.392.437-2.1.614Z" transform="translate(3.526 5.155)" fill="#17133e"/>
    <path id="Caminho_173" data-name="Caminho 173" d="M34.093,58.131c.749-.059,1.516-.151,2.28-.273l-.346-2.164c-.706.114-1.414.2-2.1.251Z" transform="translate(3.158 5.246)" fill="#17133e"/>
    <path id="Caminho_174" data-name="Caminho 174" d="M66.276,32A31.782,31.782,0,0,1,12.021,54.473a1.128,1.128,0,0,0-1.55,0l-2.28,2.28V48.439h8.314l-2.16,2.16a1.1,1.1,0,0,0,0,1.55,28.307,28.307,0,0,0,20.149,8.345V58.3a26.114,26.114,0,0,1-17.808-6.945l3.24-3.24a1.1,1.1,0,0,0-.775-1.871H7.1a1.1,1.1,0,0,0-1.1,1.1V59.4a1.1,1.1,0,0,0,1.871.775l3.388-3.387A33.974,33.974,0,0,0,68.468,32Z" transform="translate(0.48 2.974)" fill="#17133e"/>
    <path id="Caminho_175" data-name="Caminho 175" d="M52.261,33.631A18.631,18.631,0,1,0,33.631,52.261,18.652,18.652,0,0,0,52.261,33.631ZM33.631,50.07A16.439,16.439,0,1,1,50.07,33.631,16.458,16.458,0,0,1,33.631,50.07Z" transform="translate(1.343 1.343)" fill="#17133e"/>
  </g>
</svg>
